# xmcd CD database file
#
# Track frame offsets:
#	150
#	23387
#	47162
#	70397
#
# Disc length: 1253 seconds
#
# Revision: 1
# Processed by: cddbd v1.5.1PL0 Copyright (c) Steve Scherf et al.
# Submitted via: CDex 1.50
#
DISCID=2b04e304
DTITLE=ï£õ½òÁÚ¸ - Careª·ªÆª¢ª²ªÆ
DYEAR=199
DGENRE=J-Pop
TTITLE0=Careª·ªÆª¢ª²ªÆ
TTITLE1=Celebration~ª·ª¢ªïª»ª¤ªÄªâªÕªêªÄªÅª­ªÞª¹ªèª¦ªË¢¦
TTITLE2=Careª·ªÆª¢ª²ªÆ£¨originarl karaoke)
TTITLE3=Celebration~ª·ª¢ªïª»ª¤ªÄªâªÕªêªÄªÅª­ªÞª¹ªèª¦ªË¢¦ (original karaoke)
EXTD=YEAR: 199
EXTT0=
EXTT1=
EXTT2=
EXTT3=
PLAYORDER=
